<?xml version="1.0" encoding="UTF-8" standalone="no"?>
<!-- Created with Inkscape (http://www.inkscape.org/) -->

<svg
   xmlns:dc="http://purl.org/dc/elements/1.1/"
   xmlns:cc="http://creativecommons.org/ns#"
   xmlns:rdf="http://www.w3.org/1999/02/22-rdf-syntax-ns#"
   xmlns:svg="http://www.w3.org/2000/svg"
   xmlns="http://www.w3.org/2000/svg"
   xmlns:sodipodi="http://sodipodi.sourceforge.net/DTD/sodipodi-0.dtd"
   xmlns:inkscape="http://www.inkscape.org/namespaces/inkscape"
   width="512"
   height="512"
   id="svg3861"
   version="1.1"
   inkscape:version="0.48.2 r9819"
   sodipodi:docname="New document 10">
  <defs
     id="defs3863" />
  <sodipodi:namedview
     id="base"
     pagecolor="#ffffff"
     bordercolor="#666666"
     borderopacity="1.0"
     inkscape:pageopacity="0.0"
     inkscape:pageshadow="2"
     inkscape:zoom="1"
     inkscape:cx="219"
     inkscape:cy="160"
     inkscape:document-units="px"
     inkscape:current-layer="layer1"
     showgrid="false"
     inkscape:window-width="1920"
     inkscape:window-height="1017"
     inkscape:window-x="-8"
     inkscape:window-y="-8"
     inkscape:window-maximized="1" />
  <metadata
     id="metadata3866">
    <rdf:RDF>
      <cc:Work
         rdf:about="">
        <dc:format>image/svg+xml</dc:format>
        <dc:type
           rdf:resource="http://purl.org/dc/dcmitype/StillImage" />
        <dc:title></dc:title>
      </cc:Work>
    </rdf:RDF>
  </metadata>
  <g
     inkscape:label="Layer 1"
     inkscape:groupmode="layer"
     id="layer1"
     transform="translate(0,-540.36218)">
    <path
       style="fill:#000000"
       d="m 235.19372,1027.8405 c -2.475,-0.2063 -10.575,-0.877 -18,-1.4905 -57.49415,-4.7499 -103.12385,-20.3111 -115.83674,-39.50403 -4.857988,-7.33423 -5.497443,-11.03179 -4.744213,-27.43276 1.298596,-28.27589 5.014963,-46.02946 13.083173,-62.5 8.83579,-18.03749 19.89899,-29.53585 50.15055,-52.12317 l 19.15277,-14.30042 10.35893,5.40981 c 11.37487,5.94037 26.68072,11.39676 39.83553,14.20098 6.46274,1.37767 12.93403,1.81196 27,1.81196 14.06597,0 20.53726,-0.43429 27,-1.81196 13.15481,-2.80422 28.46066,-8.26061 39.83553,-14.20098 l 10.35893,-5.40981 19.15277,14.30042 c 30.25156,22.58732 41.31476,34.08568 50.15055,52.12317 8.06821,16.47054 11.78458,34.22411 13.08318,62.5 0.4393,9.56539 0.28797,15.88141 -0.44468,18.55917 -6.43342,23.51372 -47.59251,40.71562 -114.79568,47.97732 -13.28257,1.4353 -55.98232,2.6709 -65.3406,1.8908 z"
       id="path3886" />
    <path
       style="fill:#000000"
       d="m 239.69372,835.33788 c -26.44092,-3.63422 -52.28033,-16.08014 -71.3501,-34.36678 -7.6393,-7.32559 -17.1499,-18.44543 -17.1499,-20.05176 0,-0.35518 1.29407,-2.52686 2.87571,-4.82595 6.23657,-9.06556 6.17731,-8.39055 6.09881,-69.47022 l -0.0714,-55.58478 4.75357,-6.9571 c 17.58046,-25.72989 47.56008,-43.20054 80.3979,-46.85194 38.7422,-4.30793 80.35651,14.75292 102.2888,46.85194 l 4.75357,6.9571 -0.0714,55.58478 c -0.0785,61.07967 -0.13776,60.40466 6.09881,69.47022 1.58164,2.29909 2.87571,4.47077 2.87571,4.82595 0,1.60682 -9.50921,12.7242 -17.12347,20.01933 -17.62042,16.88192 -38.83505,27.92187 -63.37653,32.98072 -9.65983,1.99123 -31.36858,2.74229 -41,1.41849 z"
       id="path3884" />
    <path
       style="fill:#f5b611;fill-opacity:1"
       d="m 102.49356,770.5511 c -7.173845,-2.47878 -12.728577,-6.55999 -16.331198,-11.99895 -5.836181,-8.81103 -6.090775,-11.12102 -5.764473,-52.30252 l 0.295835,-37.33642 2.619815,-5.58648 c 3.337646,-7.11718 8.708307,-12.47841 15.793705,-15.76596 4.710936,-2.18583 7.341676,-2.65226 16.785666,-2.97613 l 11.1992,-0.38406 4.18551,-7.14368 c 16.47111,-28.11232 41.08864,-49.71531 70.20439,-61.60752 66.21788,-27.04642 141.40551,-1.91621 178.34193,59.60781 l 5.48965,9.14397 11.19007,0.38377 c 9.43441,0.32356 12.06655,0.79045 16.77654,2.97584 7.0854,3.28755 12.45606,8.64878 15.7937,15.76596 l 2.61982,5.58648 0,39.5 0,39.5 -2.6107,5.56658 c -3.26869,6.96954 -8.78179,12.45568 -15.8893,15.81159 -4.87829,2.30335 -6.96948,2.63328 -18.5,2.91876 -11.96665,0.29627 -13.3577,0.13829 -17.5,-1.98754 -3.27437,-1.6804 -5.11282,-3.52464 -6.75,-6.77128 -2.24441,-4.45081 -2.25,-4.58689 -2.25,-54.78212 0,-41.65703 0.24922,-50.91669 1.44758,-53.78478 1.39483,-3.33828 1.3191,-3.69246 -2.07786,-9.71788 -17.19658,-30.50279 -46.67652,-52.58319 -82.09578,-61.48953 -9.78175,-2.45967 -12.47764,-2.70916 -29.27394,-2.70916 -16.7963,0 -19.49219,0.24949 -29.27394,2.70916 -35.41926,8.90634 -64.8992,30.98674 -82.09578,61.48953 -3.39696,6.02542 -3.47269,6.3796 -2.07786,9.71788 1.19836,2.86809 1.44758,12.12775 1.44758,53.78478 0,50.19523 -0.006,50.33131 -2.25,54.78212 -3.57882,7.09701 -8.34258,8.9699 -22.71189,8.92924 -8.43815,-0.0239 -12.93525,-0.5154 -16.73827,-1.82946 z"
       id="path3880" />
  </g>
</svg>
