<?xml version="1.0" encoding="UTF-8" standalone="no"?>
<!-- Created with Inkscape (http://www.inkscape.org/) -->

<svg
   xmlns:dc="http://purl.org/dc/elements/1.1/"
   xmlns:cc="http://creativecommons.org/ns#"
   xmlns:rdf="http://www.w3.org/1999/02/22-rdf-syntax-ns#"
   xmlns:svg="http://www.w3.org/2000/svg"
   xmlns="http://www.w3.org/2000/svg"
   xmlns:sodipodi="http://sodipodi.sourceforge.net/DTD/sodipodi-0.dtd"
   xmlns:inkscape="http://www.inkscape.org/namespaces/inkscape"
   width="512"
   height="512"
   id="svg2"
   version="1.1"
   inkscape:version="0.48.2 r9819"
   sodipodi:docname="cart.svg">
  <defs
     id="defs4" />
  <sodipodi:namedview
     id="base"
     pagecolor="#ffffff"
     bordercolor="#666666"
     borderopacity="1.0"
     inkscape:pageopacity="0.0"
     inkscape:pageshadow="2"
     inkscape:zoom="0.81980192"
     inkscape:cx="260.00997"
     inkscape:cy="103.09456"
     inkscape:document-units="px"
     inkscape:current-layer="layer1"
     showgrid="false"
     inkscape:window-width="1920"
     inkscape:window-height="1017"
     inkscape:window-x="-8"
     inkscape:window-y="-8"
     inkscape:window-maximized="1" />
  <metadata
     id="metadata7">
    <rdf:RDF>
      <cc:Work
         rdf:about="">
        <dc:format>image/svg+xml</dc:format>
        <dc:type
           rdf:resource="http://purl.org/dc/dcmitype/StillImage" />
        <dc:title></dc:title>
      </cc:Work>
    </rdf:RDF>
  </metadata>
  <g
     inkscape:label="Layer 1"
     inkscape:groupmode="layer"
     id="layer1"
     transform="translate(0,-540.36218)">
    <path
       style="fill:#000000"
       d="m 118.49459,1018.3532 c -7.18147,-2.4916 -12.73168,-6.572 -16.3312,-12.0063 -6.400149,-9.6625 -6.013819,4.6469 -5.728489,-212.17876 l 0.25985,-197.46022 2.61982,-5.58648 c 3.330049,-7.101 8.692699,-12.46365 15.793699,-15.7937 l 5.58648,-2.61982 135.5,0 135.5,0 5.58648,2.61982 c 7.101,3.33005 12.46365,8.6927 15.7937,15.7937 l 2.61982,5.58648 0,199.5 0,199.5 -2.61982,5.58648 c -3.33005,7.101 -8.6927,12.4637 -15.7937,15.7937 l -5.58648,2.6198 -134,0.2248 c -126.89951,0.2129 -134.27555,0.1292 -139.20016,-1.5795 z"
       id="path3900" />
    <path
       style="fill:#ffffff"
       d="m 283.26852,984.9089 c 20.51858,-5.35024 37.4556,-14.97184 52.05549,-29.57172 14.52867,-14.52868 24.04839,-31.24028 29.65326,-52.05549 2.30763,-8.57 2.57791,-11.40858 2.57791,-27.07377 0,-15.66519 -0.27028,-18.50377 -2.57791,-27.07377 -5.59403,-20.77494 -14.8708,-37.06703 -29.52485,-51.85225 -14.40378,-14.53272 -31.39294,-24.26285 -52.08813,-29.83221 -8.67829,-2.33544 -11.46352,-2.6022 -27.16954,-2.6022 -15.66519,0 -18.50377,0.27028 -27.07377,2.57791 -20.81521,5.60487 -37.52681,15.12459 -52.05549,29.65326 -14.52867,14.52868 -24.04839,31.24028 -29.65326,52.05549 -2.30763,8.57 -2.57791,11.40858 -2.57791,27.07377 0,15.66519 0.27028,18.50377 2.57791,27.07377 5.60746,20.82483 15.12998,37.53842 29.65326,52.04638 16.67922,16.66161 36.26193,26.86337 60.36411,31.44714 11.41893,2.17166 33.85648,1.25812 45.83892,-1.86631 z"
       id="path3898" />
    <path
       style="fill:#f5b611;fill-opacity:1"
       d="m 243.35866,955.08685 c -30.83311,-5.12679 -56.63311,-28.88707 -64.55252,-59.44906 -5.07469,-19.58386 -1.8392,-42.10984 8.60795,-59.92987 5.32619,-9.08503 19.19563,-22.95447 28.28066,-28.28065 14.59198,-8.55469 33.89468,-12.60098 49.89791,-10.45977 18.80541,2.51614 33.18486,9.64634 46.69051,23.152 13.65494,13.65494 20.79658,28.20797 23.20464,47.28576 2.02653,16.05515 -1.94752,34.69328 -10.51241,49.30266 -5.32618,9.08503 -19.19562,22.95447 -28.28065,28.28065 -15.78625,9.25483 -35.71567,13.02813 -53.33609,10.09828 z"
       id="path3896" />
    <path
       style="fill:#ffffff"
       d="m 272.3626,921.47154 c 13.18058,-4.77774 24.16258,-15.73475 29.16211,-29.09577 1.66661,-4.45392 2.12085,-7.91672 2.12085,-16.16785 0,-8.25113 -0.45424,-11.71393 -2.12085,-16.16785 -4.98354,-13.31828 -15.84383,-24.17857 -29.16211,-29.16211 -8.04936,-3.01198 -24.28634,-3.01198 -32.3357,0 -18.28654,6.84261 -30.37385,23.09518 -31.59564,42.48343 -1.44737,22.96776 12.83479,42.7183 35.76349,49.45669 6.49285,1.90815 21.1177,1.20902 28.16785,-1.34654 z"
       id="path3894" />
    <path
       style="fill:#ffffff"
       d="m 271.58527,730.23592 c 22.92529,-5.8633 40.77418,-23.71219 46.63748,-46.63748 8.6323,-33.75197 -12.39738,-68.66138 -46.63748,-77.41852 -33.75197,-8.6323 -68.66138,12.39738 -77.41852,46.63748 -8.58193,33.55504 12.28956,68.47596 46.24353,77.37187 9.6566,2.53002 21.39641,2.54759 31.17499,0.0466 z"
       id="path3892" />
    <path
       style="fill:#f5b611;fill-opacity:1"
       d="m 246.49459,698.4071 c -10.86305,-3.88155 -17.78531,-11.18158 -20.96072,-22.10459 -2.96778,-10.20881 0.39916,-22.7662 8.19421,-30.56126 12.15876,-12.15875 32.77458,-12.15875 44.93334,0 12.15875,12.15876 12.15875,32.77458 0,44.93334 -8.13348,8.13348 -21.83014,11.42599 -32.16683,7.73251 z"
       id="path3888" />
  </g>
</svg>
