<?xml version="1.0" encoding="UTF-8" standalone="no"?>
<!-- Created with Inkscape (http://www.inkscape.org/) -->

<svg
   xmlns:dc="http://purl.org/dc/elements/1.1/"
   xmlns:cc="http://creativecommons.org/ns#"
   xmlns:rdf="http://www.w3.org/1999/02/22-rdf-syntax-ns#"
   xmlns:svg="http://www.w3.org/2000/svg"
   xmlns="http://www.w3.org/2000/svg"
   xmlns:sodipodi="http://sodipodi.sourceforge.net/DTD/sodipodi-0.dtd"
   xmlns:inkscape="http://www.inkscape.org/namespaces/inkscape"
   width="767.10278"
   height="234"
   id="svg2"
   version="1.1"
   inkscape:version="0.48.2 r9819"
   sodipodi:docname="logo.svg">
  <defs
     id="defs4" />
  <sodipodi:namedview
     id="base"
     pagecolor="#ffffff"
     bordercolor="#666666"
     borderopacity="1.0"
     inkscape:pageopacity="0.0"
     inkscape:pageshadow="2"
     inkscape:zoom="1.159375"
     inkscape:cx="568.74876"
     inkscape:cy="128.24315"
     inkscape:document-units="px"
     inkscape:current-layer="layer1"
     showgrid="false"
     inkscape:showpageshadow="false"
     fit-margin-top="0"
     fit-margin-left="0"
     fit-margin-right="0"
     fit-margin-bottom="0"
     inkscape:window-width="1920"
     inkscape:window-height="1017"
     inkscape:window-x="-8"
     inkscape:window-y="-8"
     inkscape:window-maximized="1" />
  <metadata
     id="metadata7">
    <rdf:RDF>
      <cc:Work
         rdf:about="">
        <dc:format>image/svg+xml</dc:format>
        <dc:type
           rdf:resource="http://purl.org/dc/dcmitype/StillImage" />
        <dc:title></dc:title>
      </cc:Work>
    </rdf:RDF>
  </metadata>
  <g
     inkscape:label="Layer 1"
     inkscape:groupmode="layer"
     id="layer1"
     transform="translate(2.9625946,-185.23282)">
    <g
       id="g3117"
       style="fill:#f5b611;fill-opacity:1"
       transform="translate(0,10)"
       inkscape:export-filename="C:\wamp\www\midiweb\subdomeny\midi2\img\midipremier.png"
       inkscape:export-xdpi="27.66"
       inkscape:export-ydpi="27.66">
      <path
         id="path3073"
         d="m 186.125,311.21875 0,14.625 c 0,13.53689 -0.1282,14.55444 -1.75,13.84375 -0.9625,-0.42178 -4.94613,-0.97453 -8.875,-1.21875 -6.17094,-0.38359 -7.96423,-0.066 -13.125,2.25 -13.97698,6.2725 -22.44278,21.97749 -19.46875,36.15625 2.89546,13.80422 12.51356,23.94761 25.96875,27.34375 6.2008,1.5651 16.67736,0.41764 23.0625,-2.5 9.4647,-4.32481 15.63364,-11.42699 18.625,-21.5 1.30076,-4.38013 1.5625,-11.03227 1.5625,-37.15625 l 0,-31.84375 -13,0 -13,0 z m -9.6875,50.4375 c 2.25393,0.0724 4.55057,0.95682 6.4375,2.84375 3.68649,3.68649 3.79952,9.67137 0.25,13.21875 -6.38194,6.37809 -16.4375,2.36173 -16.4375,-6.5625 0,-5.85656 4.79135,-9.65923 9.75,-9.5 z"
         style="fill:#f5b611;fill-opacity:1"
         inkscape:connector-curvature="0" />
      <path
         id="path3069"
         d="m 223.14016,371.73282 0,-33.5 13,0 13,0 0,33.5 0,33.5 -13,0 -13,0 0,-33.5 z"
         style="fill:#f5b611;fill-opacity:1"
         inkscape:connector-curvature="0" />
      <path
         id="path3067"
         d="m -2.6612146,380.98282 c 0.33991,-26.22302 0.67957,-27.66981 8.28057,-35.2708 10.2907596,-10.29076 23.7464476,-11.20594 35.3733296,-2.40588 l 5.14747,3.89597 5.14747,-3.89597 c 11.626882,-8.80006 25.082572,-7.88488 35.373333,2.40588 7.249007,7.249 7.479197,8.32382 7.479197,34.92193 l 0,23.59887 -13,0 -13,0 0,-19.92857 c 0,-16.78355 -0.247995,-20.17657 -1.571429,-21.5 -0.864285,-0.86429 -2.182142,-1.57143 -2.928571,-1.57143 -0.746429,0 -2.064286,0.70714 -2.928571,1.57143 -1.323434,1.32343 -1.571429,4.71645 -1.571429,21.5 l 0,19.92857 -13,0 -13,0 0,-19.31144 c 0,-18.05217 -0.132957,-19.45415 -2.038955,-21.5 -2.41221,-2.5892 -4.240922,-2.76583 -6.389615,-0.61713 -1.32344,1.32343 -1.57143,4.71645 -1.57143,21.5 l 0,19.92857 -13.05137,0 -13.0513796,0 0.30138,-23.25 z"
         style="fill:#f5b611;fill-opacity:1"
         inkscape:connector-curvature="0" />
      <path
         id="path3065"
         d="m 105.14016,370.73282 0,-33.5 13,0 13,0 0,33.5 0,33.5 -13,0 -13,0 0,-33.5 z"
         style="fill:#f5b611;fill-opacity:1"
         inkscape:connector-curvature="0" />
      <path
         id="path3051"
         d="m 230.53563,333.19535 c -6.63066,-2.01688 -11.33802,-10.29031 -9.84108,-17.29621 1.6871,-7.89593 6.86882,-12.08632 14.94561,-12.08632 9.2316,0 14.92,5.6884 14.92,14.92 0,8.49102 -4.69401,13.87225 -13.01134,14.91624 -2.14976,0.26983 -5.3057,0.0657 -7.01319,-0.45371 z"
         style="fill:#f5b611;fill-opacity:1"
         inkscape:connector-curvature="0" />
      <path
         id="path3049"
         d="m 112.53563,332.19535 c -6.63066,-2.01688 -11.33802,-10.29031 -9.84108,-17.29621 1.6871,-7.89593 6.86882,-12.08632 14.94561,-12.08632 3.0688,0 6.20293,0.71282 8.11446,1.84554 8.98231,5.32267 9.22483,20.69389 0.40866,25.90173 -3.52277,2.08095 -9.71829,2.82439 -13.62765,1.63526 z"
         style="fill:#f5b611;fill-opacity:1"
         inkscape:connector-curvature="0" />
    </g>
    <g
       id="g3107"
       style="fill:#f5b611;fill-opacity:1"
       inkscape:export-filename="C:\wamp\www\midiweb\subdomeny\midi2\img\midipremier.png"
       inkscape:export-xdpi="27.66"
       inkscape:export-ydpi="27.66"
       transform="translate(0,10)">
      <path
         id="path3075"
         d="m 276.14016,387.41432 c 0,-26.12398 0.28354,-32.77328 1.5843,-37.15341 3.01467,-10.15149 9.11657,-17.15422 18.9157,-21.70822 5.17223,-2.40372 7.24166,-2.78718 15,-2.77942 7.72549,0.008 9.8663,0.40584 15.11743,2.81134 14.17467,6.49331 22.59302,22.07821 19.60936,36.30286 -3.43365,16.37007 -15.59151,26.77087 -32.81618,28.07356 l -7.47662,0.56546 0.283,-11.88607 0.28301,-11.88607 4.91847,-0.70197 c 6.57277,-0.93806 10.03608,-4.32665 10.03608,-9.81956 0,-8.44302 -9.36041,-12.5472 -15.23182,-6.67856 l -2.72273,2.72145 -0.28985,31.97855 -0.28984,31.97856 -13.46016,0 -13.46015,0 0,-31.8185 z"
         style="fill:#f5b611;fill-opacity:1"
         inkscape:connector-curvature="0" />
      <path
         id="path3063"
         d="m 358.14016,358.73282 0,-33.5 13.5,0 13.5,0 0,2.95455 0,2.95454 2.37227,-2.37227 c 3.72679,-3.72679 13.0414,-5.60461 19.37773,-3.90653 2.15857,0.57847 2.25,1.04521 2.25,11.48634 l 0,10.88337 -5.25,0.006 c -6.93149,0.007 -12.00944,1.5004 -15.71895,4.62174 l -3.03105,2.55005 0,18.9111 0,18.91111 -13.5,0 -13.5,0 0,-33.5 z"
         style="fill:#f5b611;fill-opacity:1"
         inkscape:connector-curvature="0" />
      <path
         id="path3061"
         d="m 491.33964,368.48282 c 0.3389,-26.78295 0.65424,-28.14533 8.27972,-35.7708 5.08102,-5.08103 10.57377,-7.71261 17.28769,-8.28256 6.99777,-0.59404 12.88306,1.1825 18.83564,5.68572 l 4.89747,3.70502 4.9012,-3.70606 c 11.49376,-8.69106 25.86425,-7.65748 36.1196,2.59788 7.24901,7.249 7.4792,8.32382 7.4792,34.92193 l 0,23.59887 -13.5,0 -13.5,0 0,-19.92857 c 0,-16.78355 -0.24799,-20.17657 -1.57143,-21.5 -1.97358,-1.97358 -2.88356,-1.97358 -4.85714,0 -1.32344,1.32343 -1.57143,4.71645 -1.57143,21.5 l 0,19.92857 -13.5,0 -13.5,0 0,-19.31144 c 0,-18.05217 -0.13296,-19.45415 -2.03896,-21.5 -2.42517,-2.60311 -3.3031,-2.70364 -5.38961,-0.61713 -1.32601,1.32601 -1.57143,4.7619 -1.57143,22 l 0,20.42857 -13.55052,0 -13.55051,0 0.30051,-23.75 z"
         style="fill:#f5b611;fill-opacity:1"
         inkscape:connector-curvature="0" />
      <path
         id="path3059"
         d="m 437.74578,389.71018 c -19.49491,-5.35253 -29.83313,-27.49981 -21.31792,-45.66874 10.38831,-22.16557 41.05612,-26.62514 57.96121,-8.42845 3.20737,3.45243 6.75109,9.74414 6.75109,11.98626 0,1.19782 -26.57451,18.38186 -31.1307,20.13023 -0.92377,0.35448 -2.51338,-1.50798 -4.73292,-5.54532 -1.83809,-3.34349 -3.18322,-6.19921 -2.98918,-6.34606 0.19404,-0.14684 3.0528,-2.1712 6.3528,-4.49858 3.3,-2.32738 6,-4.73362 6,-5.3472 0,-0.61358 -1.35,-1.48078 -3,-1.9271 -9.55315,-2.58412 -20.03818,6.88781 -17.98292,16.24534 0.99262,4.51939 6.02295,9.72131 10.58978,10.95103 4.79401,1.2909 10.13579,0.0314 13.57675,-3.20127 2.78298,-2.61446 3.02534,-2.51668 12.44535,5.02117 6.69949,5.36091 6.62001,6.01449 -1.4033,11.54036 -8.99682,6.19634 -20.33333,8.04994 -31.12004,5.08833 z"
         style="fill:#f5b611;fill-opacity:1"
         inkscape:connector-curvature="0" />
      <path
         id="path3057"
         d="m 599.14016,357.73282 0,-33.5 13.5,0 13.5,0 0,33.5 0,33.5 -13.5,0 -13.5,0 0,-33.5 z"
         style="fill:#f5b611;fill-opacity:1"
         inkscape:connector-curvature="0" />
      <path
         id="path3055"
         d="m 659.74578,389.71018 c -19.49491,-5.35253 -29.83313,-27.49981 -21.31792,-45.66874 10.38831,-22.16557 41.05612,-26.62514 57.96121,-8.42845 3.20737,3.45243 6.75109,9.74414 6.75109,11.98626 0,1.19782 -26.57451,18.38186 -31.1307,20.13023 -0.92377,0.35448 -2.51338,-1.50798 -4.73292,-5.54532 -1.83809,-3.34349 -3.18322,-6.19921 -2.98918,-6.34606 0.19404,-0.14684 3.0528,-2.1712 6.3528,-4.49858 3.3,-2.32738 6,-4.73362 6,-5.3472 0,-0.61358 -1.35,-1.48078 -3,-1.9271 -9.55315,-2.58412 -20.03818,6.88781 -17.98292,16.24534 0.99262,4.51939 6.02295,9.72131 10.58978,10.95103 4.79401,1.2909 10.13579,0.0314 13.57675,-3.20127 2.78298,-2.61446 3.02534,-2.51668 12.44535,5.02117 6.69949,5.36091 6.62001,6.01449 -1.4033,11.54036 -8.99682,6.19634 -20.33333,8.04994 -31.12004,5.08833 z"
         style="fill:#f5b611;fill-opacity:1"
         inkscape:connector-curvature="0" />
      <path
         id="path3053"
         d="m 713.14016,357.73282 0,-33.5 13.5,0 13.5,0 0,2.95455 0,2.95454 2.37227,-2.37227 c 3.72679,-3.72679 13.0414,-5.60461 19.37773,-3.90653 2.15857,0.57847 2.25,1.04521 2.25,11.48634 l 0,10.88337 -5.25,0.006 c -6.93149,0.007 -12.00944,1.5004 -15.71895,4.62174 l -3.03105,2.55005 0,18.9111 0,18.91111 -13.5,0 -13.5,0 0,-33.5 z"
         style="fill:#f5b611;fill-opacity:1"
         inkscape:connector-curvature="0" />
      <path
         id="path3023"
         d="m 606.53563,319.20287 c -11.67947,-3.58092 -13.60818,-21.238 -3.00993,-27.55545 4.18591,-2.49515 13.04301,-2.49515 17.22892,0 9.02578,5.38013 9.22207,20.70646 0.33245,25.95769 -3.50649,2.07134 -10.50169,2.83942 -14.55144,1.59776 z"
         style="fill:#f5b611;fill-opacity:1"
         inkscape:connector-curvature="0" />
    </g>
    <g
       id="g3097"
       transform="translate(0,40)"
       inkscape:export-filename="C:\wamp\www\midiweb\subdomeny\midi2\img\midipremier.png"
       inkscape:export-xdpi="27.66"
       inkscape:export-ydpi="27.66">
      <path
         inkscape:connector-curvature="0"
         id="path3043"
         d="m 296.77964,283.53897 c -0.35171,-0.35172 -0.63948,-31.61448 -0.63948,-69.47282 0,-60.51851 0.18119,-68.83333 1.5,-68.83333 1.31883,0 1.5,8.32678 1.5,68.94098 0,37.91754 -0.38723,69.18031 -0.86052,69.47282 -0.47329,0.2925 -1.14829,0.24406 -1.5,-0.10765 z"
         style="fill:#000000" />
      <g
         id="g3089">
        <path
           style="fill:#000000"
           d="m 38.140155,278.23282 0,-3 -7,0 -7,0 0,-65 0,-65 15.5,0 15.5,0 0,65 0,65 -7,0 -7,0 0,3 c 0,2 -0.5,3 -1.5,3 -1,0 -1.5,-1 -1.5,-3 z"
           id="path3029"
           inkscape:connector-curvature="0" />
        <path
           style="fill:#000000"
           d="m 83.140155,278.23282 0,-3 -6.5,0 -6.5,0 0,-65 0,-65 14,0 14,0 0,65 0,65 -6,0 c -6,0 -6,0 -6,3 0,2 -0.5,3 -1.5,3 -1,0 -1.5,-1 -1.5,-3 z"
           id="path3027"
           inkscape:connector-curvature="0" />
        <path
           style="fill:#000000"
           d="m 168.14016,276.73282 0,-4.5 -7,0 -7,0 0,-63.5 0,-63.5 15,0 15,0 0,63.5 0,63.5 -6.5,0 -6.5,0 0,4.5 c 0,3.33333 -0.38889,4.5 -1.5,4.5 -1.11111,0 -1.5,-1.16667 -1.5,-4.5 z"
           id="path3025"
           inkscape:connector-curvature="0" />
        <path
           style="fill:#000000"
           d="m 255.14016,275.23282 c 0,-1.70074 -0.54136,-3.02646 -1.25,-3.0611 -0.6875,-0.0336 -2.61019,-1.94611 -4.27264,-4.25 -1.86934,-2.59061 -4.25404,-4.55397 -6.25,-5.1457 l -3.22736,-0.95679 0,-58.29321 0,-58.2932 15.5,0 15.5,0 0,63.5 0,63.5 -6.5,0 -6.5,0 0,3 c 0,2 -0.5,3 -1.5,3 -1,0 -1.5,-1 -1.5,-3 z"
           id="path3021"
           inkscape:connector-curvature="0" />
        <path
           style="fill:#000000"
           d="m 198.14016,207.23282 0,-62 14.5,0 14.5,0 0,58.4 0,58.4 -3.6,3.6 -3.6,3.6 -10.9,0 -10.9,0 0,-62 z"
           id="path3019"
           inkscape:connector-curvature="0" />
        <path
           style="fill:#000000"
           d="m 125.34016,261.03282 c -0.90541,-0.90541 -1.2,-15.26667 -1.2,-58.5 0,-50.26667 0.18412,-57.3 1.5,-57.3 1.31624,0 1.5,7.16667 1.5,58.5 0,32.175 -0.135,58.5 -0.3,58.5 -0.165,0 -0.84,-0.54 -1.5,-1.2 z"
           id="path3017"
           inkscape:connector-curvature="0" />
      </g>
    </g>
    <g
       id="g3078"
       transform="translate(0,40)"
       inkscape:export-filename="C:\wamp\www\midiweb\subdomeny\midi2\img\midipremier.png"
       inkscape:export-xdpi="27.66"
       inkscape:export-ydpi="27.66">
      <path
         inkscape:connector-curvature="0"
         id="path3047"
         d="m 427.14016,216.31615 c 0,-62.65916 0.17856,-71.08333 1.50671,-71.08333 1.33048,0 1.47668,8.26512 1.25,70.66674 -0.20147,55.46071 -0.52568,70.75639 -1.50671,71.08334 -0.99218,0.33066 -1.25,-14.24456 -1.25,-70.66675 z"
         style="fill:#000000" />
      <path
         inkscape:connector-curvature="0"
         id="path3045"
         d="m 341.14016,280.23282 0,-5 -7,0 -7,0 0,-65 0,-65 15.5,0 15.5,0 0,65 0,65 -7,0 -7,0 0,5 c 0,3.77778 -0.36667,5 -1.5,5 -1.13333,0 -1.5,-1.22222 -1.5,-5 z"
         style="fill:#000000" />
      <path
         inkscape:connector-curvature="0"
         id="path3041"
         d="m 643.14016,279.23282 0,-5 -6.5,0 -6.5,0 0,-64.5 0,-64.5 14.5,0 14.5,0 0,64.5 0,64.5 -6.5,0 -6.5,0 0,5 c 0,3.77778 -0.36667,5 -1.5,5 -1.13333,0 -1.5,-1.22222 -1.5,-5 z"
         style="fill:#000000" />
      <path
         inkscape:connector-curvature="0"
         id="path3039"
         d="m 686.14016,279.23282 0,-5 -7,0 -7,0 0,-64.5 0,-64.5 15,0 15,0 0,64.5 0,64.5 -6.5,0 -6.5,0 0,5 c 0,3.77778 -0.36667,5 -1.5,5 -1.13333,0 -1.5,-1.22222 -1.5,-5 z"
         style="fill:#000000" />
      <path
         inkscape:connector-curvature="0"
         id="path3037"
         d="m 385.14016,279.23282 0,-4 -7.5,0 -7.5,0 0,-65 0,-65 16,0 16,0 0,65 0,65 -7,0 -7,0 0,4 c 0,2.88889 -0.41667,4 -1.5,4 -1.08333,0 -1.5,-1.11111 -1.5,-4 z"
         style="fill:#000000" />
      <path
         inkscape:connector-curvature="0"
         id="path3035"
         d="m 471.14016,277.23282 0,-5 -7,0 -7,0 0,-63.5 0,-63.5 15.5,0 15.5,0 0,63.5 0,63.5 -7,0 -7,0 0,5 c 0,3.77778 -0.36667,5 -1.5,5 -1.13333,0 -1.5,-1.22222 -1.5,-5 z"
         style="fill:#000000" />
      <path
         inkscape:connector-curvature="0"
         id="path3033"
         d="m 514.14016,277.23282 0,-5 -6.5,0 -6.5,0 0,-63.5 0,-63.5 14.5,0 14.5,0 0,63.5 0,63.5 -6.5,0 -6.5,0 0,5 c 0,3.77778 -0.36667,5 -1.5,5 -1.13333,0 -1.5,-1.22222 -1.5,-5 z"
         style="fill:#000000" />
      <path
         inkscape:connector-curvature="0"
         id="path3031"
         d="m 557.14016,277.23282 0,-5 -7,0 -7,0 0,-63.5 0,-63.5 15.5,0 15.5,0 0,63.5 0,63.5 -7,0 -7,0 0,5 c 0,3.77778 -0.36667,5 -1.5,5 -1.13333,0 -1.5,-1.22222 -1.5,-5 z"
         style="fill:#000000" />
      <path
         inkscape:connector-curvature="0"
         id="path3011"
         d="m 599.14016,197.85527 c 0,-46.10885 0.18567,-52.62245 1.5,-52.62245 1.31387,0 1.5,6.37528 1.5,51.37755 0,44.44899 -0.20228,51.54544 -1.5,52.62245 -1.3301,1.10389 -1.5,-4.71543 -1.5,-51.37755 z"
         style="fill:#000000" />
    </g>
  </g>
</svg>
